<svg xmlns="http://www.w3.org/2000/svg" width="89" height="89" viewBox="0 0 89 89"><defs><style>.a{fill:#ffe152;}.b{fill:#d3a489;}.c{fill:#bf8e75;}.d{fill:#3d4159;}.e{fill:#66baed;}.f{fill:#2ba1cf;}.g{fill:#2a2f4f;}.h{fill:#eab599;}.i{fill:#f6caae;}.j{fill:#fff;}</style></defs><g transform="translate(-454 -487)"><circle class="a" cx="44.5" cy="44.5" r="44.5" transform="translate(454 487)"/><g transform="translate(450.735 477.71)"><path class="b" d="M283.045,158.12a4.738,4.738,0,1,1-3.982-4.681A4.741,4.741,0,0,1,283.045,158.12Zm0,0" transform="translate(-222.373 -125.977)"/><path class="c" d="M302.923,158.368a4.741,4.741,0,0,1-3.982,4.681,17.729,17.729,0,0,1,0-9.361A4.742,4.742,0,0,1,302.923,158.368Zm0,0" transform="translate(-242.251 -126.225)"/><path class="c" d="M292.432,170.554a1.694,1.694,0,1,1-1.695-1.694A1.7,1.7,0,0,1,292.432,170.554Zm0,0" transform="translate(-234.806 -138.41)"/><path class="d" d="M190.2,403v3.779a50.527,50.527,0,0,1-42.724,0V403a16.117,16.117,0,0,1,11.938-15.567c.251-.068.5-.13.761-.185a15.923,15.923,0,0,1,2.1-.308c.436-.035.874-.054,1.319-.054h10.494a16.153,16.153,0,0,1,3.419.362c.064.012.128.027.189.041.185.043.37.088.553.138l.015,0A16.131,16.131,0,0,1,190.2,403Zm0,0" transform="translate(-121.108 -313.514)"/><path class="e" d="M226.849,388.723l-.039.183-5.14,23.9q-.4.033-.8.062c-.377.025-.755.047-1.136.064q-1.166.055-2.345.055-1.21,0-2.4-.058-.54-.024-1.08-.064c-.269-.018-.537-.037-.8-.059l-5.138-23.9-.038-.185Zm0,0" transform="translate(-169.657 -314.992)"/><path class="d" d="M242.671,416.422l-4.326,6.938-4.325-6.938" transform="translate(-190.615 -337.239)"/><path class="d" d="M245.272,456.056c-.377.025-.755.047-1.136.064q-1.166.055-2.345.055-1.21,0-2.4-.058-.54-.024-1.08-.064l3.483-13.561Zm0,0" transform="translate(-194.059 -358.177)"/><path class="f" d="M217.384,384.131l-7.255,4.032L207.922,377.9l4.508-2.655" transform="translate(-169.654 -304.166)"/><path class="f" d="M255.988,384.131l7.254,4.032,2.207-10.265-4.508-2.655" transform="translate(-208.258 -304.166)"/><path class="g" d="M275.3,402.577h2.3l-4.019,9.778a50.069,50.069,0,0,1-5.671.581l7.061-24.033.054-.179,4.964,1.621Zm0,0" transform="translate(-217.833 -314.992)"/><path class="g" d="M194.51,412.933a49.924,49.924,0,0,1-5.675-.588l-4.016-9.768h2.3l-4.691-12.233,4.965-1.621.054.179Zm0,0" transform="translate(-149.18 -314.992)"/><path class="h" d="M238.284,355.352v7.055a5.75,5.75,0,0,1-11.5,0v-7.055Zm0,0" transform="translate(-184.804 -288.191)"/><path class="i" d="M252.348,388.922v.448a5.75,5.75,0,0,1-4.049,5.492,5.748,5.748,0,0,1-4-4.744q.577.036,1.158.035a19.823,19.823,0,0,0,6.894-1.231Zm0,0" transform="translate(-198.868 -315.152)"/><path class="i" d="M132.245,274.792a5.348,5.348,0,0,1-4.491,5.278,5.407,5.407,0,0,1-.856.068,5.347,5.347,0,1,1,5.347-5.347Zm0,0" transform="translate(-100.285 -219.195)"/><path class="h" d="M154.661,275.075a5.348,5.348,0,0,1-4.491,5.278,20,20,0,0,1,0-10.556A5.348,5.348,0,0,1,154.661,275.075Zm0,0" transform="translate(-122.701 -219.477)"/><path class="h" d="M142.83,288.813a1.911,1.911,0,1,1-1.911-1.911A1.911,1.911,0,0,1,142.83,288.813Zm0,0" transform="translate(-114.306 -233.215)"/><path class="i" d="M336.1,274.792a5.348,5.348,0,1,0,4.491-5.278A5.348,5.348,0,0,0,336.1,274.792Zm0,0" transform="translate(-272.604 -219.195)"/><path class="h" d="M336.1,275.075a5.348,5.348,0,0,0,4.491,5.278,20,20,0,0,0,0-10.556A5.348,5.348,0,0,0,336.1,275.075Zm0,0" transform="translate(-272.604 -219.477)"/><path class="h" d="M194.727,162.53v7.575a19.893,19.893,0,0,1-16.7,19.635l-.1.016a19.545,19.545,0,0,1-3.1.241,19.892,19.892,0,0,1-19.892-19.891V162.53a19.881,19.881,0,0,1,19.891-19.894h0a19.879,19.879,0,0,1,19.892,19.894Zm0,0" transform="translate(-127.103 -117.349)"/><path class="h" d="M357.381,288.813a1.911,1.911,0,1,1-1.911-1.911A1.911,1.911,0,0,1,357.381,288.813Zm0,0" transform="translate(-286.622 -233.215)"/><path class="i" d="M220,163.512v7.575a19.893,19.893,0,0,1-16.7,19.635l-.1.016a19.9,19.9,0,0,1-16.793-19.652v-7.575a19.9,19.9,0,0,1,16.8-19.653A19.9,19.9,0,0,1,220,163.512Zm0,0" transform="translate(-152.374 -118.331)"/><path class="d" d="M216.056,267.084a2.257,2.257,0,1,1-2.256-2.256A2.257,2.257,0,0,1,216.056,267.084Zm0,0" transform="translate(-172.563 -215.487)"/><path class="d" d="M282.025,267.084a2.257,2.257,0,1,1-2.257-2.256A2.257,2.257,0,0,1,282.025,267.084Zm0,0" transform="translate(-225.545 -215.487)"/><path class="j" d="M224.243,270.323a.967.967,0,1,1-.967-.967A.967.967,0,0,1,224.243,270.323Zm0,0" transform="translate(-181.209 -219.123)"/><path class="j" d="M290.774,270.323a.967.967,0,1,1-.967-.967A.967.967,0,0,1,290.774,270.323Zm0,0" transform="translate(-234.643 -219.123)"/><path class="h" d="M245.069,292.716h-4.514a.973.973,0,0,1,0-1.947h4.514a.973.973,0,1,1,0,1.947Zm0,0" transform="translate(-195.082 -236.321)"/><path class="h" d="M234.332,320.059a10.05,10.05,0,0,1-4.85-1.253.885.885,0,0,1,.853-1.551,8.254,8.254,0,0,0,7.994,0,.885.885,0,0,1,.853,1.551A10.052,10.052,0,0,1,234.332,320.059Zm0,0" transform="translate(-186.602 -257.506)"/><path class="g" d="M194.723,143.426v7.76h-3.7v-6.077l-26.726-4.966-5.655-1.051v12.094h-3.7v-7.76a16.015,16.015,0,0,1,16.014-16.016h7.757c.211,0,.421,0,.632.015a16.012,16.012,0,0,1,15.382,16Zm0,0" transform="translate(-127.1 -105.12)"/><path class="d" d="M232.9,143.486v7.76h-3.7v-6.077L202.472,140.2a15.334,15.334,0,0,1,30.429,3.283Zm0,0" transform="translate(-165.277 -105.179)"/></g></g></svg>