<svg xmlns="http://www.w3.org/2000/svg" width="88" height="88" viewBox="0 0 88 88"><defs><style>.a{fill:#f7931a;}.b{fill:#ffe955;}.c{fill:#ff9f00;}.d{fill:#ed771b;}.e{fill:#ffd112;}.f{fill:#fff;}.g{fill:#474f6f;}.h{fill:#323b5a;}</style></defs><circle class="a" cx="44" cy="44" r="44"/><g transform="translate(15.529 22.471)"><path class="b" d="M158.052,305.48v28.372a47.06,47.06,0,0,1-56.942,0V305.48Z" transform="translate(-101.11 -277.912)"/><path class="c" d="M158.052,305.48l-28.471,29.493,0,0L101.11,305.48Z" transform="translate(-101.11 -277.912)"/><path class="d" d="M284.471,305.48,256,334.973V305.48Z" transform="translate(-227.529 -277.912)"/><path class="e" d="M158.052,305.48l-28.471,20.558,0,0L101.11,305.48Z" transform="translate(-101.11 -277.912)"/><path class="f" d="M158.657,158.777v12.957a3.271,3.271,0,0,1-3.271,3.272H105.122a3.271,3.271,0,0,1-3.272-3.272V158.777a3.271,3.271,0,0,1,3.272-3.272h50.264A3.271,3.271,0,0,1,158.657,158.777Z" transform="translate(-101.714 -155.505)"/><g transform="translate(3.503 6.705)"><path class="g" d="M124.421,191.984l-.036,1.573,1.34-.8.983,1.7-1.412.733,1.412.769-.983,1.716-1.358-.84.054,1.573h-1.966l.054-1.59-1.358.822-.983-1.68,1.394-.769-1.394-.733.983-1.733,1.34.84-.036-1.573h1.966Z" transform="translate(-120.168 -191.984)"/><path class="g" d="M163.892,191.984l-.036,1.573,1.34-.8.983,1.7-1.412.733,1.412.769-.983,1.716-1.358-.84.054,1.573h-1.966l.054-1.59-1.358.822-.983-1.68,1.394-.769-1.394-.733.983-1.733,1.34.84-.036-1.573h1.966Z" transform="translate(-152.384 -191.984)"/><path class="g" d="M203.363,191.984l-.036,1.573,1.34-.8.983,1.7-1.412.733,1.412.769-.983,1.716-1.358-.84.054,1.573H201.4l.053-1.59-1.358.822-.983-1.68,1.394-.769-1.394-.733.983-1.733,1.34.84-.036-1.573h1.966Z" transform="translate(-184.599 -191.984)"/><path class="g" d="M245.124,194.45l-.983-1.7-1.34.8.036-1.573H240.87l.036,1.573-1.34-.84-.983,1.733,1.394.732-1.394.769.983,1.68,1.358-.822-.054,1.59h1.966l-.053-1.573,1.358.84.983-1.716-1.412-.769Z" transform="translate(-216.817 -191.984)"/><path class="h" d="M282.307,191.984l-.036,1.573,1.34-.8.983,1.7-1.412.733,1.412.769-.983,1.716-1.358-.84.054,1.573h-1.966l.054-1.59-1.358.822-.983-1.68,1.394-.769-1.394-.733.983-1.733,1.34.84-.036-1.573h1.966Z" transform="translate(-249.032 -191.984)"/><path class="h" d="M321.778,191.984l-.036,1.573,1.34-.8.983,1.7-1.412.733,1.412.769-.983,1.716-1.358-.84.054,1.573h-1.966l.054-1.59-1.358.822-.983-1.68,1.394-.769-1.394-.733.983-1.733,1.34.84-.036-1.573h1.966Z" transform="translate(-281.248 -191.984)"/><path class="h" d="M361.248,191.984l-.036,1.573,1.34-.8.983,1.7-1.412.733,1.412.769-.983,1.716-1.358-.84.054,1.573h-1.966l.053-1.59-1.358.822-.983-1.68,1.394-.769-1.394-.733.983-1.733,1.34.84-.036-1.573h1.966Z" transform="translate(-313.463 -191.984)"/></g></g></svg>