<svg xmlns="http://www.w3.org/2000/svg" width="89.241" height="91.245" viewBox="0 0 89.241 91.245"><defs><style>.a{fill:#fdbf43;}.b{fill:#d2fcff;}.c{fill:#aef7ff;}.d{fill:#0573cd;}.e{fill:#528ed7;}.f{fill:#2fcbe0;}.g{fill:#0ed1b2;}.h{fill:#0198b0;}</style></defs><g transform="translate(0 0)"><path class="a" d="M12.948,85.926a2.286,2.286,0,0,1-1.977-.763,44.621,44.621,0,1,1,67.3,0,2.291,2.291,0,0,1-1.982.768,288.174,288.174,0,0,0-31.673-1.713,288.36,288.36,0,0,0-31.673,1.713Zm0,0" transform="translate(0 -9.238)"/><path class="b" d="M171.457,19.123V45.531a3.643,3.643,0,1,1-7.285,0V19.123A11.852,11.852,0,0,0,152.333,7.285H146.87a11.852,11.852,0,0,0-11.839,11.838V45.531a3.642,3.642,0,1,1-7.284,0V19.123A19.145,19.145,0,0,1,146.87,0h5.463a19.145,19.145,0,0,1,19.124,19.123Zm0,0" transform="translate(-104.98 0)"/><path class="c" d="M133.573,48.44a3.637,3.637,0,0,1-5.827-2.909V19.123A19.145,19.145,0,0,1,146.869,0h4.371a19.145,19.145,0,0,0-19.124,19.123V45.531a3.635,3.635,0,0,0,1.457,2.909Zm34.969-2.909V19.123A11.852,11.852,0,0,0,156.7,7.285h-4.371a11.852,11.852,0,0,1,11.839,11.838V45.531A3.637,3.637,0,0,0,170,48.44,3.633,3.633,0,0,1,168.542,45.531Zm0,0" transform="translate(-104.98 0)"/><path class="d" d="M61.315,211.932V169.2a3.642,3.642,0,0,1,3.643-3.642h60.1A3.642,3.642,0,0,1,128.7,169.2v42.731a44.621,44.621,0,0,1-67.387,0Zm0,0" transform="translate(-50.388 -136.055)"/><path class="e" d="M101.172,218.512V169.2a3.642,3.642,0,0,1,3.643-3.642h53a3.642,3.642,0,0,1,3.642,3.642v42.731a44.624,44.624,0,0,1-60.284,6.581Zm0,0" transform="translate(-83.142 -136.054)"/><path class="f" d="M168.165,248.508a5.464,5.464,0,0,1-5.464,5.464H128.1a5.464,5.464,0,1,1,0-10.927h34.6A5.464,5.464,0,0,1,168.165,248.508ZM162.7,224.832H128.1a5.464,5.464,0,1,0,0,10.927h34.6a5.464,5.464,0,1,0,0-10.927Zm0,0" transform="translate(-100.778 -184.764)"/><path class="b" d="M156.622,261.105a2.732,2.732,0,1,1-2.732-2.732A2.732,2.732,0,0,1,156.622,261.105Zm-11.838-20.944a2.732,2.732,0,1,0,2.732,2.732A2.732,2.732,0,0,0,144.784,240.161Zm0,18.212a2.732,2.732,0,1,0,2.732,2.732A2.732,2.732,0,0,0,144.784,258.373Zm27.319,0a2.732,2.732,0,1,0,2.732,2.732A2.732,2.732,0,0,0,172.1,258.373ZM163,240.161a2.732,2.732,0,1,0,2.732,2.732A2.732,2.732,0,0,0,163,240.161Zm0,18.212a2.732,2.732,0,1,0,2.732,2.732A2.732,2.732,0,0,0,163,258.373Zm-9.106-18.212a2.732,2.732,0,1,0,2.732,2.732A2.732,2.732,0,0,0,153.89,240.161Zm0,0" transform="translate(-116.736 -197.361)"/><path class="g" d="M209.9,436.508H196.791a3.643,3.643,0,1,1,0-7.285H209.9a3.643,3.643,0,1,1,0,7.285Zm0,0" transform="translate(-158.727 -352.73)"/><path class="h" d="M227.358,443.362a1.366,1.366,0,0,1-1.366,1.366H215.976a1.366,1.366,0,1,1,0-2.732h10.017A1.366,1.366,0,0,1,227.358,443.362Zm0,0" transform="translate(-176.363 -363.227)"/></g></svg>