<svg xmlns="http://www.w3.org/2000/svg" width="15" height="15" viewBox="0 0 15 15"><defs><style>.a{fill:#53bf00;}.b{fill:#fff;}</style></defs><g transform="translate(-251 -240)"><circle class="a" cx="7.5" cy="7.5" r="7.5" transform="translate(251 240)"/><g transform="translate(254.777 242.867)"><g transform="translate(2.911 0) rotate(22)"><path class="b" d="M5.393,4.076A1.4,1.4,0,0,0,4.576,3.6a1.107,1.107,0,0,0,.612-1.2,1.191,1.191,0,0,0-.17-.534,1.07,1.07,0,0,0-.385-.364,2.121,2.121,0,0,0-.528-.21,4.163,4.163,0,0,0-.654-.105V0H2.731V1.144q-.187,0-.57.009V0H1.443V1.177q-.154,0-.453,0l-.99,0v.766H.518a.371.371,0,0,1,.416.318V3.6a.475.475,0,0,1,.075,0H.934V5.482a.249.249,0,0,1-.271.238H.145L0,6.574H.934l.257,0,.252,0V7.769h.719V6.593q.2,0,.57,0V7.769h.719V6.579a5.59,5.59,0,0,0,.679-.07A2.765,2.765,0,0,0,4.7,6.348a1.531,1.531,0,0,0,.453-.273,1.289,1.289,0,0,0,.3-.416A1.767,1.767,0,0,0,5.6,5.075,1.383,1.383,0,0,0,5.393,4.076ZM2.176,1.994l.184,0,.252,0q.1,0,.271.012a2.576,2.576,0,0,1,.287.037,1.6,1.6,0,0,1,.257.077.7.7,0,0,1,.224.131.648.648,0,0,1,.142.2.612.612,0,0,1,.058.273.65.65,0,0,1-.042.238.449.449,0,0,1-.126.18,1.277,1.277,0,0,1-.173.126.791.791,0,0,1-.226.086q-.138.033-.24.051a1.968,1.968,0,0,1-.257.026l-.233.009q-.079,0-.217,0l-.161,0V1.994h0Zm1.963,3.18a.664.664,0,0,1-.114.187.649.649,0,0,1-.184.14,1.582,1.582,0,0,1-.222.1,1.785,1.785,0,0,1-.259.065q-.152.028-.266.04t-.273.019q-.159.007-.247.007l-.224,0-.173,0V4.146l.222,0q.185,0,.3,0t.322.014a2.753,2.753,0,0,1,.346.042,2.272,2.272,0,0,1,.306.086.887.887,0,0,1,.269.142.7.7,0,0,1,.173.215.667.667,0,0,1,.026.537Z" transform="translate(0 0)"/></g></g></g></svg>