<svg xmlns="http://www.w3.org/2000/svg" width="15" height="15" viewBox="0 0 15 15"><defs><style>.a{fill:#00bfb2;}.b{fill:#fff;}</style></defs><g transform="translate(-243 -817)"><circle class="a" cx="7.5" cy="7.5" r="7.5" transform="translate(243 817)"/><path class="b" d="M3.731-1.487H3.043v-.649a2.936,2.936,0,0,1-1.767-.621A1.809,1.809,0,0,1,.622-4.192H1.84a1.022,1.022,0,0,0,.357.711,1.509,1.509,0,0,0,.846.342V-5.32l-.479-.12a2.555,2.555,0,0,1-1.325-.709A1.778,1.778,0,0,1,.782-7.4a1.845,1.845,0,0,1,.6-1.43,2.755,2.755,0,0,1,1.662-.641v-.689h.689v.689a2.661,2.661,0,0,1,1.615.646,1.884,1.884,0,0,1,.626,1.4H4.779a.956.956,0,0,0-.3-.684,1.275,1.275,0,0,0-.746-.344v2.071l.494.1a2.786,2.786,0,0,1,1.412.714A1.78,1.78,0,0,1,6.1-4.282a1.9,1.9,0,0,1-.619,1.49,2.888,2.888,0,0,1-1.752.646ZM4.889-4.152a.85.85,0,0,0-.282-.666,1.861,1.861,0,0,0-.876-.372v2.061a1.383,1.383,0,0,0,.853-.3A.912.912,0,0,0,4.889-4.152ZM2.01-7.5a.814.814,0,0,0,.265.621,1.575,1.575,0,0,0,.769.352V-8.454A1.149,1.149,0,0,0,2.3-8.16.868.868,0,0,0,2.01-7.5Z" transform="translate(246.745 830.178)"/></g></svg>