<svg xmlns="http://www.w3.org/2000/svg" width="15" height="15" viewBox="0 0 15 15"><defs><style>.a{fill:#353535;}.b{fill:#5b6a72;}.c{fill:#ef8100;}.d{fill:#efbc00;}.e{fill:#dbf2fa;}.f{fill:#fefefe;}</style></defs><path class="a" d="M15,7.5A7.5,7.5,0,0,1,3.723,13.981q-.079-.046-.158-.095-.271-.167-.527-.357-.074-.055-.146-.111A7.5,7.5,0,1,1,15,7.5Z"/><g transform="translate(3.695 3.089)"><g transform="translate(0 3.22)"><path class="b" d="M106.3,175.617c-.832-.441-2.137.418-2.785,1.189a.112.112,0,0,0,.1.183,2.9,2.9,0,0,1,2.335.606" transform="translate(-103.485 -175.497)"/><path class="b" d="M286.2,270.074c.715.613.394,2.142-.086,3.027a.112.112,0,0,1-.207-.026,2.9,2.9,0,0,0-1.42-1.951" transform="translate(-280.524 -268.001)"/></g><g transform="matrix(-0.826, -0.563, 0.563, -0.826, 2.501, 8.823)"><ellipse class="c" cx="2.233" cy="1.153" rx="2.233" ry="1.153" transform="translate(2.305 0) rotate(90)"/><ellipse class="d" cx="1.42" cy="0.733" rx="1.42" ry="0.733" transform="translate(1.885 0.814) rotate(90)"/></g><path class="e" d="M191.021,34.958a3.876,3.876,0,0,1-.228,3.751,30.842,30.842,0,0,1-2.42,2.9.373.373,0,0,1-.468.065l-1.053-.64-.981-.746a.373.373,0,0,1-.111-.459,30.847,30.847,0,0,1,1.816-3.316,3.876,3.876,0,0,1,3.407-1.586Z" transform="translate(-183.921 -34.793)"/><path class="b" d="M180.659,34.936l-.987-.75a.512.512,0,0,1-.151-.628,30.907,30.907,0,0,1,1.826-3.334,4.039,4.039,0,0,1,3.514-1.646l.046,0,.114.077.015.043a5.769,5.769,0,0,1,.379,1.94,3.4,3.4,0,0,1-.623,1.933,30.911,30.911,0,0,1-2.433,2.92.512.512,0,0,1-.64.09Zm4.14-6.08a3.681,3.681,0,0,0-3.225,1.522,30.651,30.651,0,0,0-1.805,3.3.237.237,0,0,0,.07.29l.975.742,1.047.636a.237.237,0,0,0,.3-.041,30.657,30.657,0,0,0,2.407-2.888A3.681,3.681,0,0,0,184.8,28.856Z" transform="translate(-177.806 -28.576)"/><ellipse class="f" cx="0.973" cy="0.973" rx="0.973" ry="0.973" transform="translate(4.232 1.628)"/><g transform="translate(4.095 1.491)"><path class="b" d="M290.849,98.637a1.111,1.111,0,1,1,1.543-.293A1.112,1.112,0,0,1,290.849,98.637Zm1.1-1.609a.836.836,0,1,0,.22,1.161A.837.837,0,0,0,291.944,97.028Z" transform="translate(-290.364 -96.609)"/></g></g></svg>