<svg xmlns="http://www.w3.org/2000/svg" width="89.575" height="89.575" viewBox="0 0 89.575 89.575"><defs><style>.a{fill:#ffe152;}.b{fill:#2ba1cf;}.c{fill:#66baed;}.d{fill:#f2f0ec;}.e{fill:#d8d5d0;}.f{fill:#cc7a3b;}.g{fill:#a35418;}.h{fill:#eab599;}.i{fill:#f6caae;}.j{fill:#3d4159;}.k{fill:#fff;}.l{fill:#bfd5de;}.m{fill:#dde8ed;}.n{fill:#d3a489;}.o{fill:#f74f4f;}.p{fill:#bf8e75;}.q{fill:#2a2f4f;}</style></defs><g transform="translate(0 0.001)"><path class="a" d="M89.575,44.787A44.757,44.757,0,0,1,58.368,87.476a43.892,43.892,0,0,1-6.457,1.534.139.139,0,0,1-.029,0q-1.628.26-3.29.4-.355.03-.711.055c-.335.022-.671.042-1.009.057q-1.036.049-2.084.049-1.075,0-2.135-.051-.48-.022-.96-.057c-.239-.016-.477-.033-.715-.053q-1.7-.142-3.368-.413c-.53-.086-1.059-.179-1.581-.284a44.239,44.239,0,0,1-6.6-1.848q-1.851-.675-3.623-1.506-.6-.283-1.2-.587-1.529-.773-2.989-1.66A44.788,44.788,0,1,1,89.575,44.787Zm0,0"/><path class="b" d="M54.15,274.971v30.6a44.237,44.237,0,0,1-6.6-1.848q-1.851-.675-3.623-1.506-.6-.283-1.2-.587-1.529-.773-2.989-1.66a44.918,44.918,0,0,1-17.771-20.154v-4.841a12.14,12.14,0,0,1,8.992-11.725c.19-.051.38-.1.574-.139a11.724,11.724,0,0,1,1.579-.234c.327-.025.658-.04.992-.04h7.906a12.068,12.068,0,0,1,2.574.275c.047.009.095.02.142.031.139.031.28.066.417.1l.011,0a12.152,12.152,0,0,1,9,11.727Zm0,0" transform="translate(-18.123 -216.85)"/><path class="c" d="M78.718,274.971v30.6a44.237,44.237,0,0,1-6.6-1.848q-1.851-.675-3.623-1.506-.6-.283-1.2-.587-1.529-.773-2.989-1.66a45.023,45.023,0,0,1-12.561-11.328V274.971a12.14,12.14,0,0,1,8.992-11.725c.191-.051.381-.1.574-.139a11.757,11.757,0,0,1,1.579-.234c.327-.025.658-.04.993-.04h2.7a12.064,12.064,0,0,1,2.574.275c.047.009.095.02.142.031.139.031.28.066.417.1l.011,0a12.152,12.152,0,0,1,9,11.727Zm0,0" transform="translate(-42.69 -216.85)"/><path class="d" d="M87.458,264.4l-.029.137L83.8,281.426a3.533,3.533,0,0,1-3.436,2.8H80.3a3.532,3.532,0,0,1-3.436-2.8l-3.632-16.889L73.2,264.4Zm0,0" transform="translate(-60.397 -218.142)"/><path class="e" d="M80.33,259.664,74.865,262.7,73.2,254.968l3.4-2" transform="translate(-60.396 -208.712)"/><path class="e" d="M113.941,259.664l5.465,3.037,1.662-7.733-3.4-2" transform="translate(-94.007 -208.712)"/><path class="f" d="M20.676,82.817V64.51a16.318,16.318,0,1,1,32.637,0V82.817" transform="translate(-17.059 -39.76)"/><path class="g" d="M27.385,65.232c0,6.475,3.792,13.967,5.875,17.592H20.672V64.517A16.308,16.308,0,0,1,36.871,48.2c-5.017.125-9.486,8.174-9.486,17.032Zm0,0" transform="translate(-17.056 -39.767)"/><path class="h" d="M97.857,236.1v5.315a4.331,4.331,0,0,1-8.661,0V236.1Zm0,0" transform="translate(-73.591 -194.799)"/><path class="i" d="M110.1,264.563v.337a4.33,4.33,0,0,1-3.05,4.137,4.329,4.329,0,0,1-3.014-3.573q.434.027.872.027a14.961,14.961,0,0,0,5.192-.927Zm0,0" transform="translate(-85.837 -218.278)"/><path class="i" d="M8.055,167.324a4.028,4.028,0,1,1-3.383-3.975,4.028,4.028,0,0,1,3.383,3.975Zm0,0" transform="translate(0 -134.728)"/><path class="h" d="M27.57,167.569a4.028,4.028,0,0,1-3.383,3.976,15.055,15.055,0,0,1,0-7.951,4.027,4.027,0,0,1,3.383,3.975Zm0,0" transform="translate(-19.515 -134.973)"/><path class="h" d="M17.672,179.529a1.44,1.44,0,1,1-1.44-1.439A1.44,1.44,0,0,1,17.672,179.529Zm0,0" transform="translate(-12.205 -146.933)"/><path class="h" d="M53.624,113.81v13.844a14.928,14.928,0,0,1-7.936,3.949l-.074.012a14.8,14.8,0,0,1-2.332.181A14.985,14.985,0,0,1,28.3,116.813v-5.706a15.1,15.1,0,0,1,.153-2.152,9.5,9.5,0,0,0,11.934-.767,8.487,8.487,0,0,0,2.252-3.519,9.889,9.889,0,0,0,3.093,6.173,11.059,11.059,0,0,0,7.894,2.969Zm0,0" transform="translate(-23.347 -86.357)"/><path class="i" d="M75.629,113.81v13.844a14.928,14.928,0,0,1-7.936,3.949l-.074.012a14.987,14.987,0,0,1-12.65-14.8v-5.706q0-.228.008-.453a9.39,9.39,0,0,0,7.413-2.467,8.485,8.485,0,0,0,2.252-3.518,9.889,9.889,0,0,0,3.093,6.173A11.059,11.059,0,0,0,75.629,113.81Zm0,0" transform="translate(-45.352 -86.357)"/><path class="h" d="M136.474,155.114a2.489,2.489,0,0,0-4.978,0" transform="translate(-108.491 -125.924)"/><path class="h" d="M72.938,155.114a2.489,2.489,0,1,0-4.977,0" transform="translate(-56.071 -125.924)"/><path class="j" d="M75.869,164.891a1.7,1.7,0,1,1-1.7-1.7A1.7,1.7,0,0,1,75.869,164.891Zm0,0" transform="translate(-59.79 -134.641)"/><path class="j" d="M139.408,164.891a1.7,1.7,0,1,1-1.7-1.7A1.7,1.7,0,0,1,139.408,164.891Zm0,0" transform="translate(-112.214 -134.641)"/><path class="h" d="M104.18,190.455h-3.4a.733.733,0,1,1,0-1.467h3.4a.733.733,0,0,1,0,1.467Zm0,0" transform="translate(-82.544 -155.925)"/><path class="h" d="M95.094,213.542a7.569,7.569,0,0,1-3.653-.944.666.666,0,1,1,.642-1.168,6.219,6.219,0,0,0,6.022,0,.666.666,0,1,1,.642,1.168A7.569,7.569,0,0,1,95.094,213.542Zm0,0" transform="translate(-75.158 -174.373)"/><path class="k" d="M83.051,167.755a.729.729,0,1,1-.729-.729A.729.729,0,0,1,83.051,167.755Zm0,0" transform="translate(-67.319 -137.806)"/><path class="k" d="M147.066,167.755a.728.728,0,1,1-.728-.729A.728.728,0,0,1,147.066,167.755Zm0,0" transform="translate(-120.135 -137.806)"/><path class="h" d="M154.644,187.769a1.867,1.867,0,1,1-1.867-1.867A1.867,1.867,0,0,1,154.644,187.769Zm0,0" transform="translate(-124.508 -153.379)"/><path class="h" d="M59.385,187.769a1.866,1.866,0,1,1-1.866-1.867A1.866,1.866,0,0,1,59.385,187.769Zm0,0" transform="translate(-45.916 -153.379)"/><path class="l" d="M330.223,270.224v5.607a44.965,44.965,0,0,1-21.784,22.006,44.7,44.7,0,0,1-11.86,3.645.138.138,0,0,1-.029,0V270.224a12.7,12.7,0,0,1,11.662-12.656c.344-.029.689-.042,1.038-.042h8.271a12.68,12.68,0,0,1,12.7,12.7Zm0,0" transform="translate(-244.669 -212.472)"/><path class="m" d="M360.811,270.225v5.607a44.965,44.965,0,0,1-21.784,22.006,44.321,44.321,0,0,1-5.4,2.111V270.225a12.7,12.7,0,0,1,12.7-12.7h1.784a12.7,12.7,0,0,1,12.7,12.7Zm0,0" transform="translate(-275.257 -212.473)"/><path class="n" d="M281.99,157.593a4.211,4.211,0,1,1-3.539-4.16A4.214,4.214,0,0,1,281.99,157.593Zm0,0" transform="translate(-225.702 -126.546)"/><path class="o" d="M380.115,283.711l-3.409,5.469-3.41-5.469" transform="translate(-307.988 -234.076)"/><path class="o" d="M375.737,323.707,371.15,329.5l-4.588-5.788,4.588-16.87Zm0,0" transform="translate(-302.432 -253.156)"/><path class="p" d="M302.41,157.848a4.214,4.214,0,0,1-3.539,4.16,15.757,15.757,0,0,1,0-8.32A4.215,4.215,0,0,1,302.41,157.848Zm0,0" transform="translate(-246.122 -126.8)"/><path class="p" d="M292.055,170.365a1.506,1.506,0,1,1-1.506-1.506A1.506,1.506,0,0,1,292.055,170.365Zm0,0" transform="translate(-238.475 -139.318)"/><path class="l" d="M357.612,254.2l-5.717,3.178-1.739-8.091,3.552-2.093" transform="translate(-288.896 -203.949)"/><path class="l" d="M392.777,254.2l5.718,3.178,1.739-8.091-3.553-2.093" transform="translate(-324.06 -203.949)"/><path class="n" d="M463.828,157.593a4.211,4.211,0,1,0,3.539-4.16A4.214,4.214,0,0,0,463.828,157.593Zm0,0" transform="translate(-382.681 -126.546)"/><g transform="translate(53.039 13.103)"><path class="p" d="M463.828,157.848a4.214,4.214,0,0,0,3.539,4.16,15.757,15.757,0,0,0,0-8.32A4.215,4.215,0,0,0,463.828,157.848Zm0,0" transform="translate(-435.72 -139.904)"/><path class="p" d="M482.317,170.365a1.506,1.506,0,1,1-1.506-1.506A1.506,1.506,0,0,1,482.317,170.365Zm0,0" transform="translate(-448.489 -152.421)"/><path class="p" d="M334.524,90.6a15.679,15.679,0,0,1-13.162,15.476,15.488,15.488,0,0,1-2.516.2A15.677,15.677,0,0,1,303.167,90.6c0-4.1,1.423-10.248,4-13.041,2.865-3.11,7.12-2.638,11.682-2.638a15.494,15.494,0,0,1,2.516.2A15.679,15.679,0,0,1,334.524,90.6Zm0,0" transform="translate(-303.167 -74.9)"/><path class="p" d="M375.946,229.559v5.561a4.531,4.531,0,0,1-9.063,0v-5.561Zm0,0" transform="translate(-355.736 -202.501)"/></g><path class="n" d="M388.76,259.328v.353a3.276,3.276,0,1,1-6.345.59q.454.028.913.028a15.578,15.578,0,0,0,2.516-.2,15.416,15.416,0,0,0,2.916-.768Zm0,0" transform="translate(-315.511 -213.959)"/><path class="n" d="M358.257,91.679a15.679,15.679,0,0,1-13.162,15.476,15.68,15.68,0,0,1,0-30.952A15.684,15.684,0,0,1,358.18,90.116c.051.515.077,1.037.077,1.564Zm0,0" transform="translate(-273.861 -62.872)"/><path class="p" d="M373.052,197.976a7.919,7.919,0,0,1-3.822-.987.7.7,0,1,1,.672-1.222,6.511,6.511,0,0,0,6.3,0,.7.7,0,0,1,.672,1.222A7.923,7.923,0,0,1,373.052,197.976Zm0,0" transform="translate(-304.334 -161.447)"/><path class="j" d="M356.924,151.06a1.779,1.779,0,1,1-1.779-1.779A1.778,1.778,0,0,1,356.924,151.06Zm0,0" transform="translate(-291.545 -123.165)"/><path class="j" d="M415.424,151.06a1.779,1.779,0,1,1-1.778-1.779A1.778,1.778,0,0,1,415.424,151.06Zm0,0" transform="translate(-339.811 -123.165)"/><path class="k" d="M364.438,154.059a.762.762,0,1,1-.762-.762A.762.762,0,0,1,364.438,154.059Zm0,0" transform="translate(-299.422 -126.478)"/><path class="k" d="M423.438,154.059a.762.762,0,1,1-.762-.762A.762.762,0,0,1,423.438,154.059Zm0,0" transform="translate(-348.1 -126.478)"/><path class="p" d="M382.555,177.808H379a.767.767,0,1,1,0-1.534h3.557a.767.767,0,1,1,0,1.534Zm0,0" transform="translate(-312.059 -145.435)"/><path class="l" d="M422.289,327.727h6.835v2.092h-6.835Zm0,0" transform="translate(-348.409 -270.391)"/><path class="q" d="M387.539,49.333a9.5,9.5,0,0,1,8.8,9.005l.045.907h2.732l1.471,9.785,3.564-1.1-.478-9.588a9.5,9.5,0,0,0-9.527-9.03Zm0,0" transform="translate(-319.739 -40.682)"/><path class="j" d="M413.47,27.816a9.685,9.685,0,1,1-13.7,13.7Zm0,0" transform="translate(-329.833 -22.95)"/><path class="j" d="M319.972,59.241H308.086l-1.472,9.786-3.564-1.1.478-9.589a9.5,9.5,0,0,1,9.527-9.03l17.166.065,2.27,4.085" transform="translate(-250.032 -40.679)"/><path class="q" d="M319.663,49.333a9.5,9.5,0,0,0-8.8,9.005l-.045.907h-2.732L306.61,69.03l-3.564-1.1.478-9.588a9.5,9.5,0,0,1,9.527-9.03Zm0,0" transform="translate(-250.028 -40.682)"/><path class="j" d="M185.447,401.2v3.358a44.905,44.905,0,0,1-37.97,0V401.2a14.324,14.324,0,0,1,10.61-13.835c.223-.06.448-.115.677-.165a14.151,14.151,0,0,1,1.863-.274c.387-.031.777-.048,1.172-.048h9.326a14.355,14.355,0,0,1,3.038.322c.057.011.113.024.168.037.165.038.329.079.491.122l.013,0A14.336,14.336,0,0,1,185.448,401.2Zm0,0" transform="translate(-121.676 -319.198)"/><path class="c" d="M224.744,388.723l-.035.163-4.568,21.244q-.355.03-.711.055c-.335.022-.671.042-1.009.057q-1.036.049-2.084.049-1.075,0-2.135-.051-.48-.022-.96-.057c-.239-.016-.477-.033-.715-.053l-4.566-21.242-.034-.165Zm0,0" transform="translate(-171.549 -320.716)"/><path class="j" d="M241.709,416.422l-3.845,6.166-3.844-6.166" transform="translate(-193.078 -343.569)"/><path class="j" d="M244.5,454.547c-.335.022-.671.042-1.009.057q-1.036.049-2.084.049-1.075,0-2.135-.051-.48-.022-.96-.057l3.1-12.052Zm0,0" transform="translate(-196.617 -365.079)"/><path class="b" d="M216.331,383.142l-6.448,3.583-1.961-9.123,4.006-2.36" transform="translate(-171.546 -309.594)"/><path class="b" d="M255.988,383.142l6.447,3.583L264.4,377.6l-4.006-2.36" transform="translate(-211.203 -309.594)"/><path class="q" d="M274.477,401.035h2.045l-3.572,8.69a44.5,44.5,0,0,1-5.04.516l6.276-21.359.048-.159,4.411,1.441Zm0,0" transform="translate(-221.039 -320.716)"/><path class="q" d="M193.166,410.239a44.363,44.363,0,0,1-5.043-.523l-3.569-8.681H186.6l-4.169-10.872,4.413-1.441.048.159Zm0,0" transform="translate(-150.514 -320.716)"/><path class="h" d="M237,355.352v6.27a5.11,5.11,0,0,1-10.22,0v-6.27Zm0,0" transform="translate(-187.109 -293.183)"/><path class="i" d="M251.453,388.922v.4a5.11,5.11,0,0,1-3.6,4.881,5.108,5.108,0,0,1-3.557-4.216q.513.032,1.029.031a17.617,17.617,0,0,0,6.127-1.094Zm0,0" transform="translate(-201.557 -320.88)"/><path class="i" d="M131.055,274.2a4.753,4.753,0,0,1-3.991,4.691,4.806,4.806,0,0,1-.761.061,4.752,4.752,0,1,1,4.752-4.752Zm0,0" transform="translate(-100.286 -222.306)"/><path class="h" d="M154.082,274.487a4.753,4.753,0,0,1-3.991,4.691,17.776,17.776,0,0,1,0-9.382A4.753,4.753,0,0,1,154.082,274.487Zm0,0" transform="translate(-123.313 -222.596)"/><path class="h" d="M142.4,288.6a1.7,1.7,0,1,1-1.7-1.7A1.7,1.7,0,0,1,142.4,288.6Zm0,0" transform="translate(-114.689 -236.709)"/><path class="i" d="M336.105,274.2a4.753,4.753,0,1,0,3.991-4.691A4.753,4.753,0,0,0,336.105,274.2Zm0,0" transform="translate(-277.303 -222.306)"/><path class="h" d="M336.105,274.487a4.753,4.753,0,0,0,3.991,4.691,17.777,17.777,0,0,0,0-9.382A4.753,4.753,0,0,0,336.105,274.487Zm0,0" transform="translate(-277.303 -222.596)"/><path class="h" d="M190.3,160.317v6.732A17.68,17.68,0,0,1,175.457,184.5l-.086.014a17.371,17.371,0,0,1-2.751.214,17.678,17.678,0,0,1-17.678-17.678v-6.733a17.669,17.669,0,0,1,17.678-17.68h0a17.667,17.667,0,0,1,17.679,17.68Zm0,0" transform="translate(-127.834 -117.682)"/><path class="h" d="M356.955,288.6a1.7,1.7,0,1,1-1.7-1.7A1.7,1.7,0,0,1,356.955,288.6Zm0,0" transform="translate(-291.704 -236.709)"/><path class="i" d="M216.259,161.326v6.732a17.68,17.68,0,0,1-14.842,17.451l-.087.014a17.682,17.682,0,0,1-14.924-17.465v-6.732a17.683,17.683,0,0,1,14.928-17.466A17.682,17.682,0,0,1,216.259,161.326Zm0,0" transform="translate(-153.795 -118.691)"/><path class="j" d="M215.554,266.833a2.005,2.005,0,1,1-2.005-2.005A2.006,2.006,0,0,1,215.554,266.833Zm0,0" transform="translate(-174.534 -218.497)"/><path class="j" d="M281.523,266.833a2.006,2.006,0,1,1-2.006-2.005A2.006,2.006,0,0,1,281.523,266.833Zm0,0" transform="translate(-228.961 -218.497)"/><path class="k" d="M224.028,270.216a.859.859,0,1,1-.86-.86A.859.859,0,0,1,224.028,270.216Zm0,0" transform="translate(-183.416 -222.232)"/><path class="k" d="M290.559,270.216a.859.859,0,1,1-.859-.86A.859.859,0,0,1,290.559,270.216Zm0,0" transform="translate(-238.307 -222.232)"/><path class="h" d="M244.459,292.5h-4.012a.865.865,0,0,1,0-1.73h4.012a.865.865,0,1,1,0,1.73Zm0,0" transform="translate(-197.667 -239.9)"/><path class="h" d="M233.742,319.735a8.931,8.931,0,0,1-4.31-1.113.787.787,0,0,1,.758-1.378,7.336,7.336,0,0,0,7.1,0,.787.787,0,0,1,.758,1.378A8.933,8.933,0,0,1,233.742,319.735Zm0,0" transform="translate(-188.956 -261.662)"/><path class="q" d="M190.3,141.644v6.9h-3.291v-5.4l-23.752-4.413-5.026-.934V148.54h-3.291v-6.9A14.233,14.233,0,0,1,169.17,127.41h6.894c.187,0,.375,0,.562.013A14.23,14.23,0,0,1,190.3,141.644Zm0,0" transform="translate(-127.831 -105.12)"/><path class="j" d="M229.515,141.706v6.9h-3.291v-5.4l-23.752-4.413a13.628,13.628,0,0,1,27.043,2.918Zm0,0" transform="translate(-167.05 -105.181)"/></g></svg>