<svg xmlns="http://www.w3.org/2000/svg" width="15" height="15" viewBox="0 0 15 15"><defs><style>.a{fill:#d8c626;}.b{fill:#fff;}</style></defs><g transform="translate(-243 -879)"><g transform="translate(-8 639)"><circle class="a" cx="7.5" cy="7.5" r="7.5" transform="translate(251 240)"/></g><g transform="translate(190.973 882.867)"><path class="b" d="M62.453,7.842l-.205-.932a.179.179,0,0,0-.088-.123.175.175,0,0,0-.152-.012l-.029.012-.07.018-.108.026c-.041.01-.089.019-.144.029s-.112.019-.173.026-.126.015-.2.021-.141.009-.211.009a2.359,2.359,0,0,1-2.215-1.489h2.268a.19.19,0,0,0,.182-.152l.141-.656a.19.19,0,0,0-.035-.158.183.183,0,0,0-.147-.07h-2.69a5.273,5.273,0,0,1,0-.615h2.86a.171.171,0,0,0,.188-.152l.141-.668a.192.192,0,0,0-.187-.223H58.837A2.315,2.315,0,0,1,59.716,1.7a2.4,2.4,0,0,1,1.325-.375.523.523,0,0,1,.173.006,1.336,1.336,0,0,0,.17.015.981.981,0,0,1,.152.018l.132.021.1.02.067.015.023.006A.168.168,0,0,0,62,1.41a.172.172,0,0,0,.082-.114l.252-.932a.194.194,0,0,0-.018-.141A.223.223,0,0,0,62.2.135,4.674,4.674,0,0,0,61.064,0a3.9,3.9,0,0,0-2.347.75A3.818,3.818,0,0,0,57.29,2.731h-.574a.18.18,0,0,0-.188.188v.668a.18.18,0,0,0,.188.187h.393q-.018.281-.006.615h-.387a.19.19,0,0,0-.188.187v.662a.19.19,0,0,0,.188.187h.557a3.785,3.785,0,0,0,1.395,2.06,3.9,3.9,0,0,0,2.4.765c.074,0,.149,0,.226-.006s.148-.01.214-.018.132-.016.2-.026.123-.019.176-.029l.149-.029c.047-.01.089-.021.126-.032s.068-.02.094-.026a.288.288,0,0,0,.061-.021l.029-.006a.184.184,0,0,0,.1-.085A.172.172,0,0,0,62.453,7.842Z" transform="translate(0)"/></g></g></svg>