<svg xmlns="http://www.w3.org/2000/svg" width="24.424" height="32.65" viewBox="0 0 24.424 32.65"><defs><style>.a{fill:#c1c1c1;opacity:0.5;}.b{fill:#6c6c6c;}.c{fill:#484848;}</style></defs><g transform="translate(-720 -659.845)"><rect class="a" width="17.7" height="24" transform="translate(722 663)"/><g transform="translate(0.377 2.845)"><path class="b" d="M29,13.477c-5.141,0-9.325,3.4-9.325,7.584A7.069,7.069,0,0,0,22.911,26.8a5.905,5.905,0,0,1-.415.947,1.765,1.765,0,0,0,1.542,2.609,1.782,1.782,0,0,0,.416-.049A8.132,8.132,0,0,0,27.993,28.6c.355.033.685.05,1.009.05,5.142,0,9.325-3.4,9.325-7.584S34.144,13.477,29,13.477ZM25,26.535l.123-.673-.59-.347a5.278,5.278,0,0,1-2.9-4.455c0-3.1,3.3-5.625,7.366-5.625s7.366,2.524,7.366,5.625-3.3,5.625-7.366,5.625a9.493,9.493,0,0,1-1.225-.086l-.485-.062-.342.349a5.634,5.634,0,0,1-2.535,1.4A7.069,7.069,0,0,0,25,26.535Z" transform="translate(705.721 650.172)"/><circle class="c" cx="1.375" cy="1.375" r="1.375" transform="translate(729.517 670.191)"/><circle class="c" cx="1.375" cy="1.375" r="1.375" transform="translate(733.348 670.191)"/><circle class="c" cx="1.375" cy="1.375" r="1.375" transform="translate(737.178 670.191)"/><path class="c" d="M25.977.75H10.963a2.34,2.34,0,0,0-2.34,2.34V31.06a2.34,2.34,0,0,0,2.34,2.34H25.977a2.34,2.34,0,0,0,2.34-2.34V23.271a12.267,12.267,0,0,1-2.622.705v2.6H11.245V4.7H25.7V5.99a12.267,12.267,0,0,1,2.622.705V3.09A2.34,2.34,0,0,0,25.977.75ZM18.47,28.26a1.588,1.588,0,1,1-1.588,1.588A1.587,1.587,0,0,1,18.47,28.26ZM21.808,3.3H15.132c-.167,0-.3-.256-.3-.564s.136-.564.3-.564h6.676c.167,0,.3.251.3.564S21.976,3.3,21.808,3.3Z" transform="translate(711 656.25)"/></g></g></svg>