<svg xmlns="http://www.w3.org/2000/svg" width="73.705" height="78.997" viewBox="0 0 73.705 78.997"><defs><style>.a{fill:#eceaec;}.b{fill:#dad8db;}.c{fill:#c8c5c9;}.d{fill:#8bb3ea;}.e{fill:#a4ccff;}.f{fill:#ffd064;}.g{fill:#ffc250;}</style></defs><g transform="translate(-17.148 0)"><path class="a" d="M78.519,4.9a2.551,2.551,0,0,0-1.956-2.1A111.5,111.5,0,0,0,54,0,111.515,111.515,0,0,0,31.438,2.8a2.551,2.551,0,0,0-1.956,2.1,14.073,14.073,0,0,1-10.46,11.316,2.535,2.535,0,0,0-1.865,2.691C18.252,32.129,23.923,63.5,52.808,78.7a2.577,2.577,0,0,0,2.384,0C84.077,63.5,89.749,32.129,90.844,18.905a2.535,2.535,0,0,0-1.865-2.691A14.073,14.073,0,0,1,78.519,4.9Z" transform="translate(0)"/><path class="b" d="M31.438,2.8a2.551,2.551,0,0,0-1.956,2.1,14.073,14.073,0,0,1-10.46,11.315,2.535,2.535,0,0,0-1.865,2.692C18.251,32.129,23.923,63.5,52.808,78.7A2.56,2.56,0,0,0,54,79V0A111.514,111.514,0,0,0,31.438,2.8Z" transform="translate(0)"/><path class="c" d="M54,160.845c-27.944-16.667-32.262-49-32.9-60.249a13.961,13.961,0,0,1-2.077.693,2.535,2.535,0,0,0-1.865,2.692c1.095,13.224,6.767,44.593,35.651,59.8a2.56,2.56,0,0,0,1.192.292Z" transform="translate(-0.001 -85.075)"/><g transform="translate(25.426 7.676)"><path class="d" d="M126.71,63.34a22.008,22.008,0,0,1-9.024-10.4,2.506,2.506,0,0,0-1.876-1.475,94.825,94.825,0,0,0-16.436-1.719,94.824,94.824,0,0,0-16.436,1.719,2.506,2.506,0,0,0-1.876,1.475,22.008,22.008,0,0,1-9.024,10.4,2.542,2.542,0,0,0-1.21,2.569,81.236,81.236,0,0,0,5.4,19.471c4.876,11.507,12.192,20.38,21.789,26.445a2.55,2.55,0,0,0,2.708,0c9.6-6.066,16.913-14.939,21.789-26.445a81.236,81.236,0,0,0,5.4-19.471A2.542,2.542,0,0,0,126.71,63.34Z" transform="translate(-70.8 -49.749)"/><path class="e" d="M113.978,66.332A91.347,91.347,0,0,1,129.3,67.894a1.256,1.256,0,0,1,.921.734,24.684,24.684,0,0,0,9.049,10.479,1.3,1.3,0,0,1,.59,1.287,77.7,77.7,0,0,1-5.1,18.012c-4.66,11-11.658,19.5-20.774,25.281-9.142-5.778-16.14-14.284-20.8-25.281a78.223,78.223,0,0,1-5.107-18,1.3,1.3,0,0,1,.59-1.289,24.7,24.7,0,0,0,9.064-10.5,1.273,1.273,0,0,1,.927-.734,92.52,92.52,0,0,1,15.313-1.551" transform="translate(-85.404 -63.773)"/><path class="f" d="M83.535,93.438l39.274,39.275a57.078,57.078,0,0,0,6.241-8.455L90.664,85.874A22,22,0,0,1,83.535,93.438Z" transform="translate(-81.57 -80.3)"/><path class="g" d="M127.188,122.4c-.8,1.359-1.661,2.649-2.555,3.9a1.281,1.281,0,0,1-1.945.148L89.622,93.379A1.286,1.286,0,0,1,89.57,91.6a24.079,24.079,0,0,0,2.961-3.861l-1.867-1.867a22,22,0,0,1-7.129,7.564l39.3,39.3a57.179,57.179,0,0,0,6.218-8.479Z" transform="translate(-81.57 -80.299)"/></g></g></svg>