<svg xmlns="http://www.w3.org/2000/svg" width="80.461" height="80.461" viewBox="0 0 80.461 80.461">
  <g id="request" transform="translate(0 0)">
    <path id="Path_1044" data-name="Path 1044" d="M225.143,188.072a7.1,7.1,0,0,1-3.772,6.27,2.081,2.081,0,0,0-.943,1.886,2.357,2.357,0,0,1-4.714,0,6.885,6.885,0,0,1,2.357-5.327,5.6,5.6,0,0,1,1.084-.754,2.247,2.247,0,0,0,1.273-2.074,2.357,2.357,0,1,0-4.714,0,2.357,2.357,0,1,1-4.714,0,7.072,7.072,0,1,1,14.143,0Zm0,0" transform="translate(-177.842 -152.556)" fill="#7c8388"/>
    <path id="Path_1045" data-name="Path 1045" d="M245.714,303.357A2.357,2.357,0,1,1,243.357,301,2.334,2.334,0,0,1,245.714,303.357Zm0,0" transform="translate(-203.127 -253.698)" fill="#7c8388"/>
    <path id="Path_1046" data-name="Path 1046" d="M4.024,14.834l2.071-2.071,2.561,2.56a40.407,40.407,0,0,0-8.3,19.94,2.374,2.374,0,0,0,2.376,2.61H17.108a2.383,2.383,0,0,0,2.3-1.967A21.485,21.485,0,0,1,35.905,19.411a2.383,2.383,0,0,0,1.967-2.3V2.733A2.374,2.374,0,0,0,35.263.357a40.4,40.4,0,0,0-19.94,8.3L12.763,6.1l2.071-2.071A2.357,2.357,0,0,0,13.167,0H2.357A2.357,2.357,0,0,0,0,2.357v10.81a2.357,2.357,0,0,0,4.024,1.667Zm0,0" transform="translate(0 0)" fill="#ff637b"/>
    <path id="Path_1047" data-name="Path 1047" d="M306.515,0h-10.81a2.357,2.357,0,0,0-1.667,4.024l2.071,2.071-2.561,2.561a40.4,40.4,0,0,0-19.94-8.3A2.374,2.374,0,0,0,271,2.733V17.108a2.383,2.383,0,0,0,1.967,2.3,21.485,21.485,0,0,1,16.495,16.495,2.383,2.383,0,0,0,2.3,1.967H306.14a2.374,2.374,0,0,0,2.376-2.61,40.4,40.4,0,0,0-8.3-19.94l2.561-2.56,2.071,2.071a2.357,2.357,0,0,0,4.025-1.667V2.357A2.357,2.357,0,0,0,306.515,0Zm0,0" transform="translate(-228.412)" fill="#00c8c8"/>
    <path id="Path_1048" data-name="Path 1048" d="M17.107,271H2.733a2.374,2.374,0,0,0-2.376,2.61,40.4,40.4,0,0,0,8.3,19.94L6.1,296.11l-2.071-2.071A2.358,2.358,0,0,0,0,295.706v10.81a2.357,2.357,0,0,0,2.357,2.357h10.81a2.357,2.357,0,0,0,1.667-4.024l-2.071-2.071,2.561-2.561a40.394,40.394,0,0,0,19.94,8.3,2.375,2.375,0,0,0,2.61-2.376V291.765a2.383,2.383,0,0,0-1.967-2.3,21.484,21.484,0,0,1-16.495-16.495,2.383,2.383,0,0,0-2.3-1.967Zm0,0" transform="translate(0 -228.413)" fill="#f4d7af"/>
    <path id="Path_1049" data-name="Path 1049" d="M304.849,294.038l-2.071,2.071-2.561-2.56a40.407,40.407,0,0,0,8.3-19.94A2.374,2.374,0,0,0,306.14,271H291.766a2.383,2.383,0,0,0-2.3,1.967,21.484,21.484,0,0,1-16.495,16.495,2.383,2.383,0,0,0-1.967,2.3v14.375a2.375,2.375,0,0,0,2.61,2.376,40.4,40.4,0,0,0,19.94-8.3l2.561,2.561-2.071,2.071a2.357,2.357,0,0,0,1.667,4.024h10.81a2.358,2.358,0,0,0,2.357-2.357V295.7a2.357,2.357,0,0,0-4.024-1.667Zm0,0" transform="translate(-228.413 -228.412)" fill="#fdbf00"/>
    <g id="Group_859" data-name="Group 859" transform="translate(40.23 28.444)">
      <path id="Path_1050" data-name="Path 1050" d="M258.357,303.357A2.334,2.334,0,0,1,256,305.714V301A2.334,2.334,0,0,1,258.357,303.357Zm0,0" transform="translate(-256 -282.142)" fill="#575f64"/>
      <path id="Path_1051" data-name="Path 1051" d="M263.072,188.072a7.1,7.1,0,0,1-3.772,6.27,2.081,2.081,0,0,0-.943,1.886A2.364,2.364,0,0,1,256,198.585V190.9a5.6,5.6,0,0,1,1.084-.754,2.247,2.247,0,0,0,1.273-2.074A2.334,2.334,0,0,0,256,185.714V181A7.062,7.062,0,0,1,263.072,188.072Zm0,0" transform="translate(-256 -181)" fill="#575f64"/>
    </g>
  </g>
</svg>
